<svg width="32" height="32" viewBox="0 0 32 32" fill="none" xmlns="http://www.w3.org/2000/svg">
<g clip-path="url(#clip0_3_2060)">
<path d="M21.3551 19.172C21.3551 18.745 21.1721 18.511 20.8961 18.344C20.6151 18.183 20.2761 18.161 19.8121 18.161H17.7551V21.921H18.6561V20.552H19.6201C19.9371 20.552 20.1361 20.584 20.2551 20.719C20.4161 20.891 20.3961 21.224 20.3961 21.454V21.918H21.2711V21.178C21.2711 20.845 21.2511 20.678 21.1311 20.49C21.0133 20.349 20.8605 20.2414 20.6881 20.178L20.7131 20.167C20.9581 20.074 21.3541 19.771 21.3541 19.172H21.3551ZM20.1931 19.713L20.1561 19.708C20.0361 19.781 19.8961 19.787 19.7131 19.787H18.6361V18.948H19.7351C19.8961 18.948 20.0521 18.948 20.1781 19.016C20.2408 19.0466 20.2931 19.0952 20.3281 19.1555C20.3632 19.2159 20.3796 19.2853 20.3751 19.355C20.3751 19.516 20.3121 19.64 20.1981 19.714L20.1931 19.713ZM27.0631 21.115H25.3341V21.918H27.0741C27.9741 21.918 28.4741 21.547 28.4741 20.741C28.4741 20.365 28.3861 20.141 28.2251 19.965C28.0221 19.788 27.6981 19.704 27.2521 19.689L26.7511 19.668C26.6111 19.668 26.5121 19.668 26.4081 19.627C26.3487 19.6084 26.2971 19.5709 26.2611 19.5201C26.2252 19.4693 26.2069 19.4082 26.2091 19.346C26.2091 19.226 26.2301 19.127 26.3291 19.07C26.4403 19.008 26.5669 18.9788 26.6941 18.986H28.3291V18.185H26.5321C25.5951 18.185 25.2561 18.768 25.2561 19.305C25.2561 20.508 26.2881 20.445 27.1321 20.466C27.2671 20.466 27.3711 20.486 27.4281 20.543C27.4911 20.586 27.5371 20.684 27.5371 20.783C27.5371 20.887 27.4901 20.986 27.4331 21.023C27.3561 21.095 27.2361 21.116 27.0641 21.116L27.0631 21.115ZM7.03125e-05 0V13.464L1.07907 10.959H3.41207L3.71307 11.579V10.959H6.43707L7.03607 12.318L7.62007 10.97H16.2921C16.6831 10.97 17.0361 11.047 17.2971 11.287V10.979H19.6821V11.287C20.0871 11.058 20.5931 10.979 21.1711 10.979H24.6441L24.9681 11.599V10.979H27.5251L27.8621 11.599V10.974H30.3421V16.241H27.8261L27.3471 15.438V16.219H24.2061L23.8671 15.38H23.0861L22.7271 16.197H21.1121C20.4711 16.197 19.9921 16.062 19.6691 15.88V16.197H15.8141V15.021C15.8141 14.86 15.7781 14.86 15.6791 14.838H15.5381V16.218H8.08507V15.583L7.80407 16.218H6.25207L5.98107 15.583V16.202H2.97607L2.63707 15.369H1.86107L1.52407 16.202H-0.00292969V31.999H31.7101V22.52C31.3511 22.701 30.8931 22.759 30.4131 22.759H28.1171V22.42C27.8361 22.639 27.3571 22.759 26.8981 22.759H19.6111V21.562C19.6111 21.401 19.5841 21.401 19.4501 21.401H19.3511V22.765H16.9501V21.344C16.5541 21.527 16.0901 21.541 15.7101 21.527H15.4291V22.746H12.5241L11.8001 21.922L11.0391 22.725H6.32007V17.485H11.1331L11.8251 18.288L12.5651 17.485H15.7781C16.1531 17.485 16.7621 17.528 17.0331 17.788V17.465H19.9341C20.2051 17.465 20.7941 17.528 21.1421 17.766V17.449H25.4911V17.766C25.7101 17.547 26.1741 17.449 26.5641 17.449H29.0841V17.766C29.3451 17.569 29.7041 17.449 30.2041 17.449H31.7721V0.001L7.03125e-05 0ZM28.2081 19.937C28.2131 19.948 28.2131 19.958 28.2191 19.964C28.2351 19.973 28.2551 19.973 28.2661 19.989L28.2091 19.942L28.2081 19.937ZM31.7711 17.443H31.8601V18.183H31.7711V17.443ZM31.8171 20.041V20.03C31.7811 19.999 31.7601 19.969 31.7181 19.937C31.5211 19.734 31.1971 19.65 30.7021 19.64L30.2181 19.625C30.0621 19.625 29.9631 19.614 29.8591 19.584C29.7998 19.5653 29.7483 19.5277 29.7123 19.4769C29.6764 19.4262 29.6581 19.3651 29.6601 19.303C29.6601 19.183 29.7011 19.088 29.7801 19.031C29.8791 18.974 29.9771 18.964 30.1391 18.964H31.7701V18.183H30.0621C29.1391 18.183 28.7811 18.766 28.7811 19.303C28.7811 20.5 29.8221 20.443 30.6611 20.464C30.8021 20.464 30.9011 20.479 30.9581 20.541C31.0211 20.584 31.0621 20.682 31.0621 20.781C31.0613 20.8274 31.0502 20.8731 31.0294 20.9147C31.0086 20.9562 30.9788 20.9925 30.9421 21.021C30.8791 21.093 30.7591 21.114 30.5831 21.114H28.8631V21.921H30.5781C31.1391 21.921 31.5571 21.765 31.7811 21.442H31.8171C31.9371 21.259 32.0001 21.041 32.0001 20.745C32.0001 20.421 31.9371 20.224 31.8171 20.041V20.041ZM24.7971 18.943V18.167H21.8171V21.943H24.7971V21.162H22.7021V20.407H24.7451V19.626H22.7021V18.949L24.7971 18.943ZM18.0161 11.713H18.9271V15.469H18.0161V11.713ZM17.5001 12.724L17.4891 12.735C17.4891 12.312 17.3171 12.068 17.0361 11.902C16.7491 11.735 16.4121 11.719 15.9591 11.719H13.9071V15.479H14.8071V14.099H15.7661C16.0831 14.099 16.2871 14.14 16.4171 14.26C16.5801 14.443 16.5581 14.765 16.5581 14.989V15.464H17.4591V14.729C17.4591 14.396 17.4381 14.229 17.3121 14.036C17.1948 13.897 17.0446 13.7897 16.8751 13.724C17.0677 13.6389 17.2306 13.4983 17.343 13.3202C17.4553 13.1421 17.5121 12.9345 17.5061 12.724H17.5001ZM16.3601 13.251H16.3441C16.2191 13.323 16.0831 13.328 15.9011 13.328H14.8021V12.495H15.9011C16.0621 12.495 16.2181 12.5 16.3381 12.563C16.4581 12.615 16.5411 12.735 16.5411 12.896C16.5411 13.057 16.4781 13.188 16.3601 13.251ZM21.2291 12.495H22.0681V11.698H21.2081C20.5931 11.698 20.1401 11.839 19.8491 12.137C19.4691 12.537 19.3691 13.058 19.3691 13.621C19.3691 14.304 19.5301 14.73 19.8491 15.048C20.1561 15.365 20.7081 15.465 21.1401 15.465H22.1831L22.5221 14.626H24.3751L24.7241 15.465H26.5361V12.652L28.2351 15.465H29.5061V11.714H28.5891V14.334L27.0171 11.719H25.6571V15.198L24.1461 11.657H22.8071L21.5521 14.621H21.1511C20.9181 14.621 20.6671 14.58 20.5271 14.438C20.3601 14.241 20.2821 13.959 20.2821 13.558C20.2821 13.178 20.3861 12.875 20.5371 12.719C20.7141 12.536 20.9021 12.495 21.2251 12.495H21.2291ZM23.4531 12.355L24.0681 13.844V13.849H22.8281L23.4531 12.355ZM3.17207 14.625L3.51107 15.464H5.33407V12.527L6.63107 15.464H7.40707L8.70307 12.527L8.72407 15.464H9.64507V11.719H8.15607L7.08307 14.255L5.91207 11.714H4.45907V15.266L2.93807 11.714H1.61007L0.0170703 15.465H0.97407L1.31807 14.632H3.17307L3.17207 14.625ZM2.25507 12.355L2.87007 13.844L2.86507 13.849H1.64607L2.25507 12.355ZM15.8071 18.161H12.9541L11.8181 19.39L10.7191 18.161H7.13107V21.921H10.6671L11.8071 20.677L12.9071 21.917H14.6401V20.666H15.7601C16.5571 20.666 17.3171 20.447 17.3171 19.406L17.3121 19.401C17.3121 18.36 16.5161 18.161 15.8071 18.161V18.161ZM10.2291 21.136H8.02607V20.391H9.98307V19.626H8.02607V18.949H10.2651L11.2451 20.042L10.2241 21.141L10.2291 21.136ZM13.7491 21.579L12.3741 20.047L13.7491 18.574V21.579ZM15.8171 19.901H14.6401V18.942H15.8171C16.1401 18.942 16.3801 19.073 16.3801 19.401C16.3801 19.729 16.1831 19.901 15.8171 19.901ZM13.2921 12.495V11.714H10.3071V15.47H13.2921V14.694H11.1971V13.943H13.2341V13.172H11.1971V12.495H13.2921Z" fill="white"/>
</g>
<defs>
<clipPath id="clip0_3_2060">
<rect width="32" height="32" fill="white"/>
</clipPath>
</defs>
</svg>
